<svg width="56" height="13" viewBox="0 0 56 13" fill="none" xmlns="http://www.w3.org/2000/svg">
<path d="M4.8877 8.17822C4.8877 7.86084 4.76709 7.6154 4.52588 7.44189C4.2889 7.26416 3.87207 7.11182 3.27539 6.98486C2.68294 6.85791 2.2111 6.70557 1.85986 6.52783C1.51286 6.3501 1.25472 6.13851 1.08545 5.89307C0.92041 5.64762 0.837891 5.35563 0.837891 5.01709C0.837891 4.45426 1.07487 3.97819 1.54883 3.58887C2.02702 3.19954 2.63639 3.00488 3.37695 3.00488C4.1556 3.00488 4.78613 3.20589 5.26855 3.60791C5.75521 4.00993 5.99854 4.52409 5.99854 5.15039H4.81787C4.81787 4.82878 4.68034 4.5516 4.40527 4.31885C4.13444 4.0861 3.79167 3.96973 3.37695 3.96973C2.94954 3.96973 2.61523 4.06283 2.37402 4.24902C2.13281 4.43522 2.01221 4.67855 2.01221 4.979C2.01221 5.26253 2.12435 5.47624 2.34863 5.62012C2.57292 5.764 2.97705 5.90153 3.56104 6.03271C4.14925 6.1639 4.62533 6.32048 4.98926 6.50244C5.35319 6.68441 5.62191 6.90446 5.79541 7.1626C5.97314 7.4165 6.06201 7.72754 6.06201 8.0957C6.06201 8.70931 5.81657 9.20231 5.32568 9.57471C4.8348 9.94287 4.19792 10.127 3.41504 10.127C2.86491 10.127 2.37826 10.0296 1.95508 9.83496C1.5319 9.6403 1.19971 9.36947 0.958496 9.02246C0.721517 8.67122 0.603027 8.29248 0.603027 7.88623H1.77734C1.7985 8.27979 1.95508 8.59294 2.24707 8.82568C2.54329 9.0542 2.93262 9.16846 3.41504 9.16846C3.85938 9.16846 4.21484 9.07959 4.48145 8.90186C4.75228 8.71989 4.8877 8.47868 4.8877 8.17822ZM11.832 9.3208C11.375 9.85824 10.7043 10.127 9.81982 10.127C9.08773 10.127 8.52913 9.91536 8.14404 9.49219C7.76318 9.06478 7.57064 8.43424 7.56641 7.60059V3.13184H8.74072V7.56885C8.74072 8.60986 9.1639 9.13037 10.0103 9.13037C10.9074 9.13037 11.5041 8.79606 11.8003 8.12744V3.13184H12.9746V10H11.8574L11.832 9.3208ZM20.5664 6.64209C20.5664 7.68734 20.3273 8.52946 19.8491 9.16846C19.3709 9.80745 18.7235 10.127 17.9067 10.127C17.0731 10.127 16.4172 9.86247 15.939 9.3335V12.6406H14.7646V3.13184H15.8374L15.8945 3.89355C16.3727 3.30111 17.0371 3.00488 17.8877 3.00488C18.7129 3.00488 19.3646 3.31592 19.8428 3.93799C20.3252 4.56006 20.5664 5.42546 20.5664 6.53418V6.64209ZM19.3921 6.50879C19.3921 5.73438 19.2271 5.12288 18.897 4.67432C18.5669 4.22575 18.1141 4.00146 17.5386 4.00146C16.8276 4.00146 16.2944 4.31673 15.939 4.94727V8.229C16.2902 8.85531 16.8276 9.16846 17.5513 9.16846C18.1141 9.16846 18.5605 8.94629 18.8906 8.50195C19.2249 8.05339 19.3921 7.389 19.3921 6.50879ZM26.3047 10C26.237 9.86458 26.182 9.62337 26.1396 9.27637C25.5938 9.84342 24.9421 10.127 24.1846 10.127C23.5075 10.127 22.951 9.93652 22.5151 9.55566C22.0835 9.17057 21.8677 8.68392 21.8677 8.0957C21.8677 7.38053 22.1385 6.82617 22.6802 6.43262C23.2261 6.03483 23.992 5.83594 24.978 5.83594H26.1206V5.29639C26.1206 4.8859 25.9979 4.56006 25.7524 4.31885C25.507 4.0734 25.1452 3.95068 24.667 3.95068C24.248 3.95068 23.8968 4.05648 23.6133 4.26807C23.3298 4.47965 23.188 4.73568 23.188 5.03613H22.0073C22.0073 4.69336 22.1279 4.36328 22.3691 4.0459C22.6146 3.72428 22.9447 3.47038 23.3594 3.28418C23.7783 3.09798 24.2375 3.00488 24.7368 3.00488C25.5282 3.00488 26.1481 3.20378 26.5967 3.60156C27.0452 3.99512 27.278 4.5389 27.2949 5.23291V8.39404C27.2949 9.02458 27.3753 9.52604 27.5361 9.89844V10H26.3047ZM24.356 9.10498C24.7241 9.10498 25.0732 9.00977 25.4033 8.81934C25.7334 8.62891 25.9725 8.38135 26.1206 8.07666V6.66748H25.2002C23.7614 6.66748 23.042 7.08854 23.042 7.93066C23.042 8.29883 23.1647 8.58659 23.4102 8.79395C23.6556 9.0013 23.9709 9.10498 24.356 9.10498ZM34.9502 6.64209C34.9502 7.69157 34.709 8.53581 34.2266 9.1748C33.7441 9.80957 33.0967 10.127 32.2842 10.127C31.4167 10.127 30.7459 9.82015 30.272 9.20654L30.2148 10H29.1357V0.25H30.3101V3.88721C30.784 3.29899 31.4378 3.00488 32.2715 3.00488C33.1051 3.00488 33.759 3.32015 34.2329 3.95068C34.7111 4.58122 34.9502 5.4445 34.9502 6.54053V6.64209ZM33.7759 6.50879C33.7759 5.70898 33.6214 5.09115 33.3125 4.65527C33.0036 4.2194 32.5592 4.00146 31.9795 4.00146C31.2051 4.00146 30.6486 4.36117 30.3101 5.08057V8.05127C30.6698 8.77067 31.2305 9.13037 31.9922 9.13037C32.555 9.13037 32.993 8.91243 33.3062 8.47656C33.6193 8.04069 33.7759 7.38477 33.7759 6.50879ZM40.6758 10C40.6081 9.86458 40.5531 9.62337 40.5107 9.27637C39.9648 9.84342 39.3132 10.127 38.5557 10.127C37.8786 10.127 37.3221 9.93652 36.8862 9.55566C36.4546 9.17057 36.2388 8.68392 36.2388 8.0957C36.2388 7.38053 36.5096 6.82617 37.0513 6.43262C37.5972 6.03483 38.3631 5.83594 39.3491 5.83594H40.4917V5.29639C40.4917 4.8859 40.369 4.56006 40.1235 4.31885C39.8781 4.0734 39.5163 3.95068 39.0381 3.95068C38.6191 3.95068 38.2679 4.05648 37.9844 4.26807C37.7008 4.47965 37.5591 4.73568 37.5591 5.03613H36.3784C36.3784 4.69336 36.499 4.36328 36.7402 4.0459C36.9857 3.72428 37.3158 3.47038 37.7305 3.28418C38.1494 3.09798 38.6086 3.00488 39.1079 3.00488C39.8993 3.00488 40.5192 3.20378 40.9678 3.60156C41.4163 3.99512 41.6491 4.5389 41.666 5.23291V8.39404C41.666 9.02458 41.7464 9.52604 41.9072 9.89844V10H40.6758ZM38.7271 9.10498C39.0952 9.10498 39.4443 9.00977 39.7744 8.81934C40.1045 8.62891 40.3436 8.38135 40.4917 8.07666V6.66748H39.5713C38.1325 6.66748 37.4131 7.08854 37.4131 7.93066C37.4131 8.29883 37.5358 8.58659 37.7812 8.79395C38.0267 9.0013 38.342 9.10498 38.7271 9.10498ZM47.5059 8.17822C47.5059 7.86084 47.3853 7.6154 47.144 7.44189C46.9071 7.26416 46.4902 7.11182 45.8936 6.98486C45.3011 6.85791 44.8293 6.70557 44.478 6.52783C44.131 6.3501 43.8729 6.13851 43.7036 5.89307C43.5386 5.64762 43.4561 5.35563 43.4561 5.01709C43.4561 4.45426 43.693 3.97819 44.167 3.58887C44.6452 3.19954 45.2546 3.00488 45.9951 3.00488C46.7738 3.00488 47.4043 3.20589 47.8867 3.60791C48.3734 4.00993 48.6167 4.52409 48.6167 5.15039H47.436C47.436 4.82878 47.2985 4.5516 47.0234 4.31885C46.7526 4.0861 46.4098 3.96973 45.9951 3.96973C45.5677 3.96973 45.2334 4.06283 44.9922 4.24902C44.751 4.43522 44.6304 4.67855 44.6304 4.979C44.6304 5.26253 44.7425 5.47624 44.9668 5.62012C45.1911 5.764 45.5952 5.90153 46.1792 6.03271C46.7674 6.1639 47.2435 6.32048 47.6074 6.50244C47.9714 6.68441 48.2401 6.90446 48.4136 7.1626C48.5913 7.4165 48.6802 7.72754 48.6802 8.0957C48.6802 8.70931 48.4347 9.20231 47.9438 9.57471C47.453 9.94287 46.8161 10.127 46.0332 10.127C45.4831 10.127 44.9964 10.0296 44.5732 9.83496C44.1501 9.6403 43.8179 9.36947 43.5767 9.02246C43.3397 8.67122 43.2212 8.29248 43.2212 7.88623H44.3955C44.4167 8.27979 44.5732 8.59294 44.8652 8.82568C45.1615 9.0542 45.5508 9.16846 46.0332 9.16846C46.4775 9.16846 46.833 9.07959 47.0996 8.90186C47.3704 8.71989 47.5059 8.47868 47.5059 8.17822ZM53.0601 10.127C52.1291 10.127 51.3716 9.82227 50.7876 9.21289C50.2036 8.59928 49.9116 7.78044 49.9116 6.75635V6.54053C49.9116 5.85921 50.0407 5.25195 50.2988 4.71875C50.5612 4.18132 50.9251 3.76237 51.3906 3.46191C51.8604 3.15723 52.3682 3.00488 52.9141 3.00488C53.807 3.00488 54.501 3.29899 54.9961 3.88721C55.4912 4.47542 55.7388 5.31755 55.7388 6.41357V6.90234H51.0859C51.1029 7.57943 51.2996 8.12744 51.6763 8.54639C52.0571 8.9611 52.5396 9.16846 53.1235 9.16846C53.5382 9.16846 53.8895 9.08382 54.1772 8.91455C54.465 8.74528 54.7168 8.521 54.9326 8.2417L55.6499 8.80029C55.0744 9.68473 54.2111 10.127 53.0601 10.127ZM52.9141 3.96973C52.4401 3.96973 52.0423 4.14323 51.7207 4.49023C51.3991 4.83301 51.2002 5.31543 51.124 5.9375H54.5645V5.84863C54.5306 5.25195 54.3698 4.79069 54.082 4.46484C53.7943 4.13477 53.4049 3.96973 52.9141 3.96973Z" fill="#E0E0E0"/>
</svg>
